<svg width="755" height="1474" viewBox="0 0 755 1474" fill="none" xmlns="http://www.w3.org/2000/svg">
<path fill-rule="evenodd" clip-rule="evenodd" d="M108 54.2078L150 79.2078C192 104.208 276 154.208 318 204.208C360 254.208 395.453 304.208 341.453 354.208C287.453 404.208 300.453 421.283 366.953 458.283C433.453 495.283 673.742 441.56 728.5 581.208C823 822.208 630.5 785.208 630.5 919.208C630.5 1065.93 395.421 986.208 395.421 1119.21C395.421 1429.38 221.311 1286.88 214 1336.71C181.5 1558.21 0 1450.71 0 1425.71C0 1399.71 0 1254.21 0 1254.21V1229.21C0 1204.21 0 1154.21 0 1104.21C0 1054.21 0 1004.21 0 954.208C0 904.208 0 854.208 0 804.208C0 754.208 0 704.208 0 654.208C0 604.208 0 554.208 0 504.208C0 454.208 0 404.208 0 354.208C0 304.208 0 254.208 0 204.208C0 154.208 0 104.208 0 79.2078L0.432373 0L108 54.2078Z" fill="#BAC9FF" fill-opacity="0.4"/>
</svg>
