<svg width="40" height="40" viewBox="0 0 40 40" fill="none" xmlns="http://www.w3.org/2000/svg">
<path d="M12.655 29.9999H21.3425C25.8525 29.9999 28.5625 27.7299 28.5625 24.0099C28.5625 21.2549 26.66 19.2199 23.8025 18.9249V18.6749C25.8825 18.3249 27.5075 16.3499 27.5075 14.1349C27.5075 10.8849 25.12 8.85986 21.1525 8.85986H12.655V29.9999ZM15.9375 17.8124V11.6449H20.3875C22.82 11.6449 24.2425 12.7874 24.2425 14.7374C24.2425 16.7424 22.7325 17.8124 19.8325 17.8124H15.9375ZM15.9375 27.2174V20.4049H20.4925C23.5825 20.4049 25.21 21.5624 25.21 23.7749C25.21 26.0149 23.6425 27.2174 20.6825 27.2174H15.9375Z" fill="white"/>
<path d="M0 10C0 7.34784 1.05357 4.8043 2.92893 2.92893C4.8043 1.05357 7.34784 0 10 0L30 0C32.6522 0 35.1957 1.05357 37.0711 2.92893C38.9464 4.8043 40 7.34784 40 10V30C40 32.6522 38.9464 35.1957 37.0711 37.0711C35.1957 38.9464 32.6522 40 30 40H10C7.34784 40 4.8043 38.9464 2.92893 37.0711C1.05357 35.1957 0 32.6522 0 30V10ZM10 2.5C8.01088 2.5 6.10322 3.29018 4.6967 4.6967C3.29018 6.10322 2.5 8.01088 2.5 10V30C2.5 31.9891 3.29018 33.8968 4.6967 35.3033C6.10322 36.7098 8.01088 37.5 10 37.5H30C31.9891 37.5 33.8968 36.7098 35.3033 35.3033C36.7098 33.8968 37.5 31.9891 37.5 30V10C37.5 8.01088 36.7098 6.10322 35.3033 4.6967C33.8968 3.29018 31.9891 2.5 30 2.5H10Z" fill="white"/>
</svg>
