<svg width="40" height="40" viewBox="0 0 40 40" fill="none" xmlns="http://www.w3.org/2000/svg">
<path d="M39.4075 9.05009C39.42 9.10259 39.4275 9.16134 39.4275 9.21259V17.8001C39.4277 17.9097 39.399 18.0174 39.3441 18.1123C39.2892 18.2071 39.2101 18.2857 39.115 18.3401L31.9075 22.4938V30.7163C31.9077 30.8259 31.879 30.9336 31.8241 31.0285C31.7692 31.1234 31.6901 31.202 31.595 31.2563L16.55 39.9151C16.5148 39.9346 16.4775 39.9497 16.4387 39.9601L16.4 39.9801C16.2953 40.0063 16.1858 40.0063 16.0812 39.9801C16.0654 39.9754 16.0503 39.9687 16.0362 39.9601C16.0001 39.9489 15.9653 39.9338 15.9325 39.9151L0.893701 31.2563C0.79788 31.2022 0.717987 31.1238 0.662039 31.029C0.606091 30.9342 0.576057 30.8264 0.574951 30.7163V4.95509C0.574951 4.90259 0.587451 4.84384 0.601201 4.79259C0.607451 4.77259 0.613701 4.76009 0.621201 4.74009L0.659951 4.64259C0.666201 4.62259 0.686201 4.61009 0.698701 4.59009L0.757451 4.51134C0.778494 4.49834 0.798176 4.48327 0.816201 4.46634C0.842451 4.44634 0.861201 4.42759 0.887451 4.41384L8.40745 0.0838376C8.50255 0.0292259 8.61029 0.000488281 8.71995 0.000488281C8.82961 0.000488281 8.93736 0.0292259 9.03245 0.0838376L16.5587 4.41384C16.585 4.42634 16.6037 4.44634 16.6237 4.46634L16.6887 4.51134C16.7079 4.5364 16.7255 4.56271 16.7412 4.59009C16.7537 4.60259 16.7737 4.62259 16.7862 4.64259L16.825 4.74009C16.8312 4.76009 16.845 4.77259 16.845 4.79259C16.8639 4.84461 16.8728 4.89975 16.8712 4.95509V21.0426L23.1337 17.4363V9.21384C23.1361 9.13997 23.1517 9.06713 23.18 8.99884L23.2187 8.90134C23.2312 8.87509 23.2512 8.86259 23.2637 8.84259C23.2837 8.81634 23.2962 8.79009 23.3162 8.77134C23.3362 8.75259 23.3612 8.73884 23.3812 8.72634C23.4 8.70553 23.4219 8.68781 23.4462 8.67384L30.9725 4.34384C31.0665 4.28614 31.1746 4.2556 31.285 4.2556C31.3953 4.2556 31.5034 4.28614 31.5975 4.34384L39.1175 8.67384C39.1437 8.68634 39.1625 8.70634 39.1887 8.72634C39.2087 8.73884 39.2275 8.75259 39.2475 8.77134C39.2675 8.79009 39.2862 8.81634 39.3062 8.84259C39.3187 8.86259 39.3387 8.87509 39.345 8.90134C39.365 8.93384 39.3712 8.96634 39.3837 8.99884C39.3962 9.01134 39.4037 9.03134 39.41 9.05134L39.4075 9.05009ZM38.17 17.4351V10.3001L35.54 11.8101L31.9075 13.9063V21.0413L38.17 17.4351ZM30.6575 30.3513V23.2088L27.0762 25.2463L16.8675 31.0801V38.2876L30.6575 30.3513ZM1.82245 6.04134V30.3513L15.6112 38.2876V31.0801L8.4037 26.9976C8.37745 26.9851 8.3587 26.9651 8.3387 26.9451C8.3187 26.9326 8.2937 26.9188 8.27995 26.9001H8.2737C8.2537 26.8801 8.2412 26.8551 8.2212 26.8351C8.2087 26.8151 8.1887 26.7963 8.1762 26.7701C8.16165 26.7455 8.1507 26.719 8.1437 26.6913C8.1312 26.6651 8.11745 26.6463 8.1112 26.6201C8.10495 26.5938 8.0987 26.5613 8.0987 26.5288C8.09245 26.5026 8.0862 26.4838 8.0862 26.4576V9.64759L4.4537 7.55134L1.82245 6.04134ZM8.71745 1.34759L2.45495 4.95384L8.71745 8.56009L14.98 4.95384L8.71745 1.34759ZM11.9787 23.8613L15.6112 21.7651V6.04259L12.9812 7.55259L9.34245 9.64884V25.3713L11.9787 23.8613ZM31.2825 5.60509L25.0125 9.21134L31.2825 12.8176L37.545 9.21134L31.2825 5.60509ZM30.6575 13.9063L24.3875 10.3001V17.4351L28.02 19.5313L30.6562 21.0413L30.6575 13.9063ZM16.2375 29.9938L30.02 22.1288L23.7637 18.5226L9.98745 26.4526L16.2375 29.9938Z" fill="white"/>
</svg>
